<svg width="150" height="137" viewBox="0 0 150 137" fill="none" xmlns="http://www.w3.org/2000/svg">
<path fill-rule="evenodd" clip-rule="evenodd" d="M64 90C44.67 90 29 101.864 29 116.5C29 117.068 29.0236 117.633 29.0702 118.192C36.2881 123.477 49.2323 127 64 127C78.7677 127 91.7119 123.477 98.9298 118.192C98.9764 117.633 99 117.068 99 116.5C99 101.864 83.33 90 64 90Z" fill="#FFF9EB"/>
<path d="M40 112C42 110.4 42.8333 100.667 43 96L51 98.5V112.5L64 125V127C54.5 127 44 125.5 36 122C36.5 119.167 38 113.6 40 112Z" fill="#596775"/>
<path fill-rule="evenodd" clip-rule="evenodd" d="M64 127C78.7677 127 91.7119 123.477 98.9298 118.192C98.9764 117.633 99 117.068 99 116.5C99 101.864 83.33 90 64 90V127Z" fill="#B6B0A2"/>
<path d="M88 112C86 110.4 85.1667 100.667 85 96L77 98.5V112.5L64 125V127C73.5 127 84 125.5 92 122C91.5 119.167 90 113.6 88 112Z" fill="#596775"/>
<path d="M113 47.0801C109.5 76.0801 90.8381 95.0801 63.5 95.0801C36.1619 95.0801 14 73.5898 14 47.0801C14.4237 36.4864 16.5 23.9911 31.5 18.9911C29 18.9911 28 13.9911 29.5 10.4655C32.2339 4.03984 48.5812 -0.678483 63.5 0.0801001C93 1.5801 115 14.0801 113 47.0801Z" fill="#596775"/>
<path fill-rule="evenodd" clip-rule="evenodd" d="M63.5 103.991C83.312 103.991 100.167 91.3285 106.412 73.6549C108.263 74.5125 110.326 74.9911 112.5 74.9911C120.508 74.9911 127 68.4992 127 60.4911C127 52.483 120.508 45.9911 112.5 45.9911C110.744 45.9911 109.061 46.3032 107.504 46.8749C102.369 27.3729 84.6142 12.9911 63.5 12.9911C42.3858 12.9911 24.6306 27.3729 19.4962 46.8749C17.9387 46.3032 16.2558 45.9911 14.5 45.9911C6.49187 45.9911 0 52.483 0 60.4911C0 68.4992 6.49187 74.9911 14.5 74.9911C16.6743 74.9911 18.7369 74.5125 20.588 73.6549C26.8334 91.3285 43.688 103.991 63.5 103.991Z" fill="#FFC98C"/>
<path d="M25.5 55C20.5 53.0089 20.3333 43 18 43C18 37.8 21.6666 40.6667 22 39.5C25.6 39.1 23.8333 45.1578 25 45.9911C35.8 32.7911 50.1666 26.1578 56 24.4911C62.4 10.4911 83.3333 19.3244 93 25.4911C99.4 26.6911 99.5 20.1667 99 17C112.6 24.6 112 38.0089 110.5 49C116.207 46.8273 106.856 54.4467 105.5 59.5C104.555 63.0216 108 63.5 106.5 73.5C102.5 84.5 98.166 90.8583 95 93C61 116 38.5 99.6 28 87C32.3145 92.1774 64.0348 86.2892 82.631 73.831C94.9734 65.5625 95.3151 47.9402 85.7906 36.539C78.6626 28.0065 70.7053 26.0151 65.5 26.9911C65.5 28.4911 65.5 32.4911 56 34.4911C48.4 36.0911 35.5 48.1578 30 53.9911C29 55.4911 27.8795 55.9476 25.5 55Z" fill="#F7A16E"/>
<circle cx="112.5" cy="60.4911" r="14.5" fill="#F7A16E"/>
<path d="M52 9.49109L65.5 10.4911L61 17.4911L53 23.9911L36.5 30.4911L25 40.4911L21.5 41.4911L19.5 36.4911L28 24.9911L36.5 17.9911L52 9.49109Z" fill="#596775"/>
<path d="M62.1379 99.3686C65.2349 100.799 65.2349 105.201 62.1379 106.631L56.9273 109.038C54.2767 110.262 51.25 108.326 51.25 105.407L51.25 100.593C51.25 97.6737 54.2767 95.7377 56.9273 96.962L62.1379 99.3686Z" fill="#FF5368"/>
<path d="M65.8621 106.631C62.7651 105.201 62.7651 100.799 65.8621 99.3686L71.0727 96.962C73.7233 95.7377 76.75 97.6737 76.75 100.593L76.75 105.407C76.75 108.326 73.7233 110.262 71.0727 109.038L65.8621 106.631Z" fill="#C5324F"/>
<ellipse cx="64" cy="102.5" rx="5" ry="4.5" fill="#D9435B"/>
<circle cx="112.5" cy="60.5" r="4.5" fill="#CE795F"/>
<circle cx="14.5" cy="60.5" r="4.5" fill="#F7A16E"/>
<rect x="126.5" y="83" width="26" height="43" rx="5" transform="rotate(30 126.5 83)" fill="#FF6473"/>
<path d="M141.222 91.5L144.687 93.5C147.078 94.8807 147.897 97.9387 146.517 100.33L129.767 129.342C128.524 131.494 125.772 132.232 123.62 130.989V130.989C121.467 129.746 120.73 126.994 121.972 124.842L141.222 91.5Z" fill="#D9435B"/>
<path d="M110 111.579L128.187 122.079C130.578 123.46 131.397 126.517 130.017 128.909V128.909C128.636 131.3 125.578 132.12 123.187 130.739L109.33 122.739C106.939 121.358 106.119 118.3 107.5 115.909L110 111.579Z" fill="#D9435B"/>
<rect x="76" y="94" width="26" height="43" rx="5" transform="rotate(-30 76 94)" fill="#FF6473"/>
<path d="M90.7224 85.5L94.1865 83.5C96.578 82.1193 99.6359 82.9387 101.017 85.3301L117.767 114.342C119.009 116.494 118.272 119.246 116.12 120.489V120.489C113.967 121.732 111.215 120.994 109.972 118.842L90.7224 85.5Z" fill="#D9435B"/>
<path d="M92.5 122.579L110.687 112.079C113.078 110.698 116.136 111.517 117.517 113.909V113.909C118.897 116.3 118.078 119.358 115.687 120.739L101.83 128.739C99.4387 130.12 96.3807 129.3 95 126.909L92.5 122.579Z" fill="#D9435B"/>
<rect x="100" y="82" width="26" height="43" rx="5" fill="#FF6473"/>
<path d="M117 82H121C123.761 82 126 84.2386 126 87V120.5C126 122.985 123.985 125 121.5 125V125C119.015 125 117 122.985 117 120.5V82Z" fill="#D9435B"/>
<path d="M100 115H121C123.761 115 126 117.239 126 120V120C126 122.761 123.761 125 121 125H105C102.239 125 100 122.761 100 120V115Z" fill="#D9435B"/>
<path d="M121 126.532C121 131.779 116.747 136.032 111.5 136.032C106.253 136.032 102 131.779 102 126.532C102 121.285 106.253 117.032 111.5 117.032C113.128 117.032 118.661 116.81 120 117.532C122.977 119.136 121 122.914 121 126.532Z" fill="#FFC98C"/>
<path fill-rule="evenodd" clip-rule="evenodd" d="M111.5 136.032C116.747 136.032 121 131.779 121 126.532C121 125.455 121.175 124.364 121.343 123.32C121.738 120.858 122.091 118.659 120 117.532C119.609 117.321 118.86 117.191 117.954 117.112C117.706 117.2 117.43 117.254 117.146 117.309C115.903 117.552 114.5 117.826 114.5 121.096C114.5 124.504 114.023 124.844 113.235 125.407C112.881 125.659 112.464 125.957 112 126.596C106.938 126.077 104.84 128.718 103.369 130.572C103.27 130.697 103.174 130.818 103.079 130.934C103.357 131.465 103.684 131.966 104.053 132.431C104.336 132.77 104.622 133.085 104.911 133.376C106.619 135.021 108.942 136.032 111.5 136.032Z" fill="#F7A16E"/>
<circle cx="22.5" cy="121.5" r="10.5" fill="#F7A16E"/>
<rect x="24" y="104" width="9" height="22" rx="4.5" fill="#F7A16E"/>
<path d="M85 61.3698C84.2127 55.5434 75.7873 55.5434 75 61.3698" stroke="#35404A" stroke-width="4" stroke-linecap="round"/>
<path d="M53 61.3698C52.2127 55.5434 43.7873 55.5434 43 61.3698" stroke="#35404A" stroke-width="4" stroke-linecap="round"/>
<path d="M72 71L67.4725 72.2936C65.8565 72.7553 64.1435 72.7553 62.5275 72.2936L58 71" stroke="#35404A" stroke-width="4" stroke-linecap="round"/>
<path d="M43 39V39C46.398 37.7082 50.1428 37.6558 53.5756 38.8521L54 39" stroke="#46525E" stroke-width="4" stroke-linecap="round"/>
<path d="M75 39V39C78.398 37.7082 82.1428 37.6558 85.5756 38.8521L86 39" stroke="#46525E" stroke-width="4" stroke-linecap="round"/>
<path d="M22.5 48.9911C20.9005 46.9917 16.3361 45.9917 14.0021 45.9911C14.0432 41.1533 14.6776 39.1285 15 38C18.6 37.6 21.8333 37.6578 23 38.4911C33.8 25.2911 48.1667 18.6578 54 16.9911C60.4 2.99109 81.3333 11.8244 91 17.9911C97.4 19.1911 97.5 12.6667 97 9.5C110.6 17.1 114.5 35 113 45.9911C110.833 46.1578 106.3 46.7911 105.5 47.9911C104.7 49.1911 102.167 48.8244 101 48.4911C90.2 21.6911 71.5 17.9911 63.5 19.4911C63.5 20.9911 63.5 24.9911 54 26.9911C46.4 28.5911 33.5 40.6578 28 46.4911C27 47.9911 24.1 50.9911 22.5 48.9911Z" fill="#3E4954"/>
<circle cx="112.5" cy="60.5" r="4.5" fill="#CE795F"/>
</svg>
