<svg width="163" height="137" viewBox="0 0 163 137" fill="none" xmlns="http://www.w3.org/2000/svg">
<path fill-rule="evenodd" clip-rule="evenodd" d="M76.9999 90C57.6699 90 41.9999 101.864 41.9999 116.5C41.9999 117.068 42.0235 117.633 42.0701 118.192C49.288 123.477 62.2321 127 76.9999 127C91.7676 127 104.712 123.477 111.93 118.192C111.976 117.633 112 117.068 112 116.5C112 101.864 96.3298 90 76.9999 90Z" fill="#FFF9EB"/>
<path d="M52.9999 112C54.9999 110.4 55.8332 100.667 55.9999 96L63.9999 98.5V112.5L76.9999 125V127C67.4999 127 56.9999 125.5 48.9999 122C49.4999 119.167 50.9999 113.6 52.9999 112Z" fill="#596775"/>
<path fill-rule="evenodd" clip-rule="evenodd" d="M76.9999 127C91.7676 127 104.712 123.477 111.93 118.192C111.976 117.633 112 117.068 112 116.5C112 101.864 96.3298 90 76.9999 90V127Z" fill="#B6B0A2"/>
<path d="M101 112C98.9999 110.4 98.1665 100.667 97.9999 96L89.9999 98.5V112.5L76.9999 125V127C86.4999 127 96.9999 125.5 105 122C104.5 119.167 103 113.6 101 112Z" fill="#596775"/>
<path d="M126 47.0801C122.5 76.0801 103.838 95.0801 76.4999 95.0801C49.1618 95.0801 26.9999 73.5898 26.9999 47.0801C27.4236 36.4864 29.4999 23.9911 44.4999 18.9911C41.9999 18.9911 40.9999 13.9911 42.4999 10.4655C45.2337 4.03984 61.5811 -0.678483 76.4999 0.0801001C106 1.5801 128 14.0801 126 47.0801Z" fill="#596775"/>
<path fill-rule="evenodd" clip-rule="evenodd" d="M76.4999 103.991C96.3119 103.991 113.166 91.3285 119.412 73.6549C121.263 74.5125 123.326 74.9911 125.5 74.9911C133.508 74.9911 140 68.4992 140 60.4911C140 52.483 133.508 45.9911 125.5 45.9911C123.744 45.9911 122.061 46.3032 120.504 46.8749C115.369 27.3729 97.6141 12.9911 76.4999 12.9911C55.3857 12.9911 37.6305 27.3729 32.4961 46.8749C30.9386 46.3032 29.2557 45.9911 27.4999 45.9911C19.4917 45.9911 12.9999 52.483 12.9999 60.4911C12.9999 68.4992 19.4917 74.9911 27.4999 74.9911C29.6742 74.9911 31.7367 74.5125 33.5879 73.6549C39.8333 91.3285 56.6878 103.991 76.4999 103.991Z" fill="#FFC98C"/>
<path d="M38.4999 55C33.4999 53.0089 33.3332 43 30.9999 43C30.9999 37.8 34.6665 40.6667 34.9998 39.5C38.5998 39.1 36.8332 45.1578 37.9998 45.9911C48.7998 32.7911 63.1665 26.1578 68.9998 24.4911C75.3998 10.4911 96.3332 19.3244 106 25.4911C112.4 26.6911 112.5 20.1667 112 17C125.6 24.6 125 38.0089 123.5 49C129.207 46.8273 119.856 54.4467 118.5 59.5C117.555 63.0216 121 63.5 119.5 73.5C115.5 84.5 111.166 90.8583 108 93C73.9999 116 51.4998 99.6 40.9998 87C45.3144 92.1774 77.0347 86.2892 95.6309 73.831C107.973 65.5625 108.315 47.9402 98.7905 36.539C91.6625 28.0065 83.7052 26.0151 78.4998 26.9911C78.4998 28.4911 78.4998 32.4911 68.9998 34.4911C61.3998 36.0911 48.4998 48.1578 42.9998 53.9911C41.9998 55.4911 40.8794 55.9476 38.4999 55Z" fill="#F7A16E"/>
<circle cx="125.5" cy="60.4911" r="14.5" fill="#F7A16E"/>
<path d="M64.9999 9.49109L78.4999 10.4911L73.9999 17.4911L65.9999 23.9911L49.4999 30.4911L37.9999 40.4911L34.4999 41.4911L32.4999 36.4911L40.9999 24.9911L49.4999 17.9911L64.9999 9.49109Z" fill="#596775"/>
<path d="M75.1377 99.3686C78.2347 100.799 78.2347 105.201 75.1377 106.631L69.9271 109.038C67.2766 110.262 64.2499 108.326 64.2499 105.407L64.2499 100.593C64.2499 97.6737 67.2766 95.7377 69.9271 96.962L75.1377 99.3686Z" fill="#FF5368"/>
<path d="M78.862 106.631C75.765 105.201 75.765 100.799 78.862 99.3686L84.0726 96.962C86.7232 95.7377 89.7499 97.6737 89.7499 100.593L89.7499 105.407C89.7499 108.326 86.7232 110.262 84.0726 109.038L78.862 106.631Z" fill="#C5324F"/>
<ellipse cx="76.9999" cy="102.5" rx="5" ry="4.5" fill="#D9435B"/>
<circle cx="125.5" cy="60.5" r="4.5" fill="#CE795F"/>
<circle cx="27.4999" cy="60.5" r="4.5" fill="#F7A16E"/>
<rect x="139.5" y="83" width="26" height="43" rx="5" transform="rotate(30 139.5 83)" fill="#FF6473"/>
<path d="M154.222 91.5L157.686 93.5C160.078 94.8807 160.897 97.9387 159.517 100.33L142.767 129.342C141.524 131.494 138.772 132.232 136.619 130.989V130.989C134.467 129.746 133.73 126.994 134.972 124.842L154.222 91.5Z" fill="#D9435B"/>
<path d="M123 111.579L141.186 122.079C143.578 123.46 144.397 126.517 143.017 128.909V128.909C141.636 131.3 138.578 132.12 136.186 130.739L122.33 122.739C119.939 121.358 119.119 118.3 120.5 115.909L123 111.579Z" fill="#D9435B"/>
<rect x="88.9999" y="94" width="26" height="43" rx="5" transform="rotate(-30 88.9999 94)" fill="#FF6473"/>
<path d="M103.722 85.5L107.186 83.5C109.578 82.1193 112.636 82.9387 114.017 85.3301L130.767 114.342C132.009 116.494 131.272 119.246 129.119 120.489V120.489C126.967 121.732 124.215 120.994 122.972 118.842L103.722 85.5Z" fill="#D9435B"/>
<path d="M105.5 122.579L123.686 112.079C126.078 110.698 129.136 111.517 130.517 113.909V113.909C131.897 116.3 131.078 119.358 128.686 120.739L114.83 128.739C112.439 130.12 109.381 129.3 108 126.909L105.5 122.579Z" fill="#D9435B"/>
<rect x="113" y="82" width="26" height="43" rx="5" fill="#FF6473"/>
<path d="M130 82H134C136.761 82 139 84.2386 139 87V120.5C139 122.985 136.985 125 134.5 125V125C132.015 125 130 122.985 130 120.5V82Z" fill="#D9435B"/>
<path d="M113 115H134C136.761 115 139 117.239 139 120V120C139 122.761 136.761 125 134 125H118C115.238 125 113 122.761 113 120V115Z" fill="#D9435B"/>
<path d="M134 126.532C134 131.779 129.747 136.032 124.5 136.032C119.253 136.032 115 131.779 115 126.532C115 121.285 119.253 117.032 124.5 117.032C126.128 117.032 131.66 116.81 133 117.532C135.977 119.136 134 122.914 134 126.532Z" fill="#FFC98C"/>
<path fill-rule="evenodd" clip-rule="evenodd" d="M124.5 136.032C129.747 136.032 134 131.779 134 126.532C134 125.455 134.175 124.364 134.343 123.32C134.738 120.858 135.091 118.659 133 117.532C132.609 117.321 131.859 117.191 130.954 117.112C130.706 117.2 130.43 117.254 130.145 117.309C128.903 117.552 127.5 117.826 127.5 121.096C127.5 124.504 127.023 124.844 126.235 125.407C125.881 125.659 125.464 125.957 125 126.596C119.938 126.077 117.84 128.718 116.369 130.572C116.27 130.697 116.174 130.818 116.079 130.934C116.357 131.465 116.684 131.966 117.053 132.431C117.336 132.77 117.622 133.085 117.911 133.376C119.619 135.021 121.941 136.032 124.5 136.032Z" fill="#F7A16E"/>
<circle cx="35.4999" cy="121.5" r="10.5" fill="#F7A16E"/>
<rect x="36.9999" y="104" width="9" height="22" rx="4.5" fill="#F7A16E"/>
<rect y="92" width="26" height="43" rx="5" transform="rotate(-30 0 92)" fill="#E9E3D5"/>
<path d="M14.7224 83.5L18.1865 81.5C20.578 80.1193 23.6359 80.9387 25.0166 83.3301L41.7666 112.342C43.0093 114.494 42.2718 117.246 40.1195 118.489V118.489C37.9672 119.732 35.2151 118.994 33.9724 116.842L14.7224 83.5Z" fill="#D3CDBF"/>
<path d="M16.5 120.579L34.6865 110.079C37.078 108.698 40.1359 109.517 41.5167 111.909V111.909C42.8974 114.3 42.078 117.358 39.6865 118.739L25.8301 126.739C23.4387 128.12 20.3807 127.3 19 124.909L16.5 120.579Z" fill="#D3CDBF"/>
<path fill-rule="evenodd" clip-rule="evenodd" d="M22.2496 109.459C24.2496 110.613 26.7496 109.17 26.7496 106.861L26.7496 101.353C26.7496 99.0432 24.2496 97.5999 22.2496 98.7546L21.7423 99.0475L21.7423 98.1751C21.7423 96.6355 20.0757 95.6733 18.7423 96.4431L17.2314 97.3154C15.8981 98.0852 15.8981 100.01 17.2314 100.78L17.9869 101.216L17.4796 101.509C15.4796 102.663 15.4796 105.55 17.4796 106.705L22.2496 109.459Z" fill="#35404A"/>
<path d="M55.9999 60C56.7872 58.6667 65.2125 58.6667 65.9999 60" stroke="#35404A" stroke-width="4" stroke-linecap="round"/>
<path d="M87.9999 60C88.7872 58.6667 97.2125 58.6667 97.9999 60" stroke="#35404A" stroke-width="4" stroke-linecap="round"/>
<path d="M81.9999 71H73.9999" stroke="#35404A" stroke-width="4" stroke-linecap="round"/>
<path d="M55.9999 48V48C59.3979 49.2918 63.1426 49.3442 66.5755 48.1479L66.9999 48" stroke="#46525E" stroke-width="4" stroke-linecap="round"/>
<path d="M87.9999 48V48C91.3979 49.2918 95.1426 49.3442 98.5755 48.1479L98.9999 48" stroke="#46525E" stroke-width="4" stroke-linecap="round"/>
<path d="M35.4999 48.9911C33.9004 46.9917 29.336 45.9917 27.002 45.9911C27.0431 41.1533 27.6774 39.1285 27.9999 38C31.5999 37.6 34.8332 37.6578 35.9999 38.4911C46.7999 25.2911 61.1665 18.6578 66.9999 16.9911C73.3999 2.99109 94.3332 11.8244 104 17.9911C110.4 19.1911 110.5 12.6667 110 9.5C123.6 17.1 127.5 35 126 45.9911C123.833 46.1578 119.3 46.7911 118.5 47.9911C117.7 49.1911 115.167 48.8244 114 48.4911C103.2 21.6911 84.4999 17.9911 76.4999 19.4911C76.4999 20.9911 76.4999 24.9911 66.9999 26.9911C59.3999 28.5911 46.4999 40.6578 40.9999 46.4911C39.9999 47.9911 37.0999 50.9911 35.4999 48.9911Z" fill="#3E4954"/>
<circle cx="125.5" cy="60.5" r="4.5" fill="#CE795F"/>
</svg>
