<svg width="163" height="137" viewBox="0 0 163 137" fill="none" xmlns="http://www.w3.org/2000/svg">
<path fill-rule="evenodd" clip-rule="evenodd" d="M77 90C57.67 90 42 101.864 42 116.5C42 117.068 42.0236 117.633 42.0702 118.192C49.2881 123.477 62.2323 127 77 127C91.7677 127 104.712 123.477 111.93 118.192C111.976 117.633 112 117.068 112 116.5C112 101.864 96.33 90 77 90Z" fill="#FFF9EB"/>
<path d="M53 112C55 110.4 55.8333 100.667 56 96L64 98.5V112.5L77 125V127C67.5 127 57 125.5 49 122C49.5 119.167 51 113.6 53 112Z" fill="#596775"/>
<path fill-rule="evenodd" clip-rule="evenodd" d="M77 127C91.7677 127 104.712 123.477 111.93 118.192C111.976 117.633 112 117.068 112 116.5C112 101.864 96.33 90 77 90V127Z" fill="#B6B0A2"/>
<path d="M101 112C99 110.4 98.1667 100.667 98 96L90 98.5V112.5L77 125V127C86.5 127 97 125.5 105 122C104.5 119.167 103 113.6 101 112Z" fill="#596775"/>
<path d="M126 47.0801C122.5 76.0801 103.838 95.0801 76.5 95.0801C49.1619 95.0801 27 73.5898 27 47.0801C27.4237 36.4864 29.5 23.9911 44.5 18.9911C42 18.9911 41 13.9911 42.5 10.4655C45.2339 4.03984 61.5812 -0.678483 76.5 0.0801001C106 1.5801 128 14.0801 126 47.0801Z" fill="#596775"/>
<path fill-rule="evenodd" clip-rule="evenodd" d="M76.5 103.991C96.312 103.991 113.167 91.3285 119.412 73.6549C121.263 74.5125 123.326 74.9911 125.5 74.9911C133.508 74.9911 140 68.4992 140 60.4911C140 52.483 133.508 45.9911 125.5 45.9911C123.744 45.9911 122.061 46.3032 120.504 46.8749C115.369 27.3729 97.6142 12.9911 76.5 12.9911C55.3858 12.9911 37.6306 27.3729 32.4962 46.8749C30.9387 46.3032 29.2558 45.9911 27.5 45.9911C19.4919 45.9911 13 52.483 13 60.4911C13 68.4992 19.4919 74.9911 27.5 74.9911C29.6743 74.9911 31.7369 74.5125 33.588 73.6549C39.8334 91.3285 56.688 103.991 76.5 103.991Z" fill="#FFC98C"/>
<path d="M38.5 55C33.5 53.0089 33.3333 43 31 43C31 37.8 34.6666 40.6667 35 39.5C38.6 39.1 36.8333 45.1578 38 45.9911C48.8 32.7911 63.1666 26.1578 69 24.4911C75.4 10.4911 96.3333 19.3244 106 25.4911C112.4 26.6911 112.5 20.1667 112 17C125.6 24.6 125 38.0089 123.5 49C129.207 46.8273 119.856 54.4467 118.5 59.5C117.555 63.0216 121 63.5 119.5 73.5C115.5 84.5 111.166 90.8583 108 93C74 116 51.5 99.6 41 87C45.3145 92.1774 77.0348 86.2892 95.631 73.831C107.973 65.5625 108.315 47.9402 98.7906 36.539C91.6626 28.0065 83.7053 26.0151 78.5 26.9911C78.5 28.4911 78.5 32.4911 69 34.4911C61.4 36.0911 48.5 48.1578 43 53.9911C42 55.4911 40.8795 55.9476 38.5 55Z" fill="#F7A16E"/>
<circle cx="125.5" cy="60.4911" r="14.5" fill="#F7A16E"/>
<path d="M65 9.49109L78.5 10.4911L74 17.4911L66 23.9911L49.5 30.4911L38 40.4911L34.5 41.4911L32.5 36.4911L41 24.9911L49.5 17.9911L65 9.49109Z" fill="#596775"/>
<path d="M75.1379 99.3686C78.2349 100.799 78.2349 105.201 75.1379 106.631L69.9273 109.038C67.2767 110.262 64.25 108.326 64.25 105.407L64.25 100.593C64.25 97.6737 67.2767 95.7377 69.9273 96.962L75.1379 99.3686Z" fill="#FF5368"/>
<path d="M78.8621 106.631C75.7651 105.201 75.7651 100.799 78.8621 99.3686L84.0727 96.962C86.7233 95.7377 89.75 97.6737 89.75 100.593L89.75 105.407C89.75 108.326 86.7233 110.262 84.0727 109.038L78.8621 106.631Z" fill="#C5324F"/>
<ellipse cx="77" cy="102.5" rx="5" ry="4.5" fill="#D9435B"/>
<circle cx="125.5" cy="60.5" r="4.5" fill="#CE795F"/>
<circle cx="27.5" cy="60.5" r="4.5" fill="#F7A16E"/>
<rect x="139.5" y="83" width="26" height="43" rx="5" transform="rotate(30 139.5 83)" fill="#FF6473"/>
<path d="M154.222 91.5L157.687 93.5C160.078 94.8807 160.897 97.9387 159.517 100.33L142.767 129.342C141.524 131.494 138.772 132.232 136.62 130.989V130.989C134.467 129.746 133.73 126.994 134.972 124.842L154.222 91.5Z" fill="#D9435B"/>
<path d="M123 111.579L141.187 122.079C143.578 123.46 144.397 126.517 143.017 128.909V128.909C141.636 131.3 138.578 132.12 136.187 130.739L122.33 122.739C119.939 121.358 119.119 118.3 120.5 115.909L123 111.579Z" fill="#D9435B"/>
<rect x="89" y="94" width="26" height="43" rx="5" transform="rotate(-30 89 94)" fill="#FF6473"/>
<path d="M103.722 85.5L107.187 83.5C109.578 82.1193 112.636 82.9387 114.017 85.3301L130.767 114.342C132.009 116.494 131.272 119.246 129.12 120.489V120.489C126.967 121.732 124.215 120.994 122.972 118.842L103.722 85.5Z" fill="#D9435B"/>
<path d="M105.5 122.579L123.687 112.079C126.078 110.698 129.136 111.517 130.517 113.909V113.909C131.897 116.3 131.078 119.358 128.687 120.739L114.83 128.739C112.439 130.12 109.381 129.3 108 126.909L105.5 122.579Z" fill="#D9435B"/>
<rect x="113" y="82" width="26" height="43" rx="5" fill="#FF6473"/>
<path d="M130 82H134C136.761 82 139 84.2386 139 87V120.5C139 122.985 136.985 125 134.5 125V125C132.015 125 130 122.985 130 120.5V82Z" fill="#D9435B"/>
<path d="M113 115H134C136.761 115 139 117.239 139 120V120C139 122.761 136.761 125 134 125H118C115.239 125 113 122.761 113 120V115Z" fill="#D9435B"/>
<path d="M134 126.532C134 131.779 129.747 136.032 124.5 136.032C119.253 136.032 115 131.779 115 126.532C115 121.285 119.253 117.032 124.5 117.032C126.128 117.032 131.661 116.81 133 117.532C135.977 119.136 134 122.914 134 126.532Z" fill="#FFC98C"/>
<path fill-rule="evenodd" clip-rule="evenodd" d="M124.5 136.032C129.747 136.032 134 131.779 134 126.532C134 125.455 134.175 124.364 134.343 123.32C134.738 120.858 135.091 118.659 133 117.532C132.609 117.321 131.86 117.191 130.954 117.112C130.706 117.2 130.43 117.254 130.146 117.309C128.903 117.552 127.5 117.826 127.5 121.096C127.5 124.504 127.023 124.844 126.235 125.407C125.881 125.659 125.464 125.957 125 126.596C119.938 126.077 117.84 128.718 116.369 130.572C116.27 130.697 116.174 130.818 116.079 130.934C116.357 131.465 116.684 131.966 117.053 132.431C117.336 132.77 117.622 133.085 117.911 133.376C119.619 135.021 121.942 136.032 124.5 136.032Z" fill="#F7A16E"/>
<circle cx="35.5" cy="121.5" r="10.5" fill="#F7A16E"/>
<rect x="37" y="104" width="9" height="22" rx="4.5" fill="#F7A16E"/>
<rect y="92" width="26" height="43" rx="5" transform="rotate(-30 0 92)" fill="#E9E3D5"/>
<path d="M14.7224 83.5L18.1865 81.5C20.578 80.1193 23.6359 80.9387 25.0166 83.3301L41.7666 112.342C43.0093 114.494 42.2718 117.246 40.1195 118.489V118.489C37.9672 119.732 35.2151 118.994 33.9724 116.842L14.7224 83.5Z" fill="#D3CDBF"/>
<path d="M16.5 120.579L34.6865 110.079C37.078 108.698 40.1359 109.517 41.5167 111.909V111.909C42.8974 114.3 42.078 117.358 39.6865 118.739L25.8301 126.739C23.4387 128.12 20.3807 127.3 19 124.909L16.5 120.579Z" fill="#D3CDBF"/>
<path d="M56 61C56.7873 66.8264 65.2127 66.8264 66 61" stroke="#35404A" stroke-width="4" stroke-linecap="round"/>
<path d="M88 61C88.7873 66.8264 97.2127 66.8264 98 61" stroke="#35404A" stroke-width="4" stroke-linecap="round"/>
<path d="M85 71L82.4653 69.5516C79.6984 67.9705 76.3016 67.9705 73.5347 69.5516L71 71" stroke="#35404A" stroke-width="4" stroke-linecap="round"/>
<path d="M56 48V48C58.9822 50.8344 63.6311 50.935 66.7332 48.2324L67 48" stroke="#46525E" stroke-width="4" stroke-linecap="round"/>
<path d="M88 48V48C90.9822 50.8344 95.6311 50.935 98.7332 48.2324L99 48" stroke="#46525E" stroke-width="4" stroke-linecap="round"/>
<path d="M35.5 48.9911C33.9005 46.9917 29.3361 45.9917 27.0021 45.9911C27.0432 41.1533 27.6776 39.1285 28 38C31.6 37.6 34.8333 37.6578 36 38.4911C46.8 25.2911 61.1667 18.6578 67 16.9911C73.4 2.99109 94.3333 11.8244 104 17.9911C110.4 19.1911 110.5 12.6667 110 9.5C123.6 17.1 127.5 35 126 45.9911C123.833 46.1578 119.3 46.7911 118.5 47.9911C117.7 49.1911 115.167 48.8244 114 48.4911C103.2 21.6911 84.5 17.9911 76.5 19.4911C76.5 20.9911 76.5 24.9911 67 26.9911C59.4 28.5911 46.5 40.6578 41 46.4911C40 47.9911 37.1 50.9911 35.5 48.9911Z" fill="#3E4954"/>
<circle cx="125.5" cy="60.5" r="4.5" fill="#CE795F"/>
<path d="M26.8601 109.794C26.8434 110.544 26.0377 111.009 25.3799 110.649L18.0616 106.639C17.7342 106.46 17.534 106.113 17.5424 105.74L17.729 97.397C17.7458 96.6472 18.5515 96.182 19.2092 96.5424L26.5275 100.552C26.8549 100.731 27.0551 101.078 27.0468 101.451L26.8601 109.794Z" fill="#C5324F"/>
</svg>
